<svg width="82" height="16" viewBox="0 0 82 16" fill="none" xmlns="http://www.w3.org/2000/svg">
<g id="&#236;&#152;&#164;&#235;&#138;&#152;&#235;&#173;&#144;&#237;&#149;&#152;&#236;&#167;&#128;?">
<path id="Vector" d="M76.7094 15.5502C76.6163 14.8244 76.6163 14.0986 76.6163 13.4286C77.3793 13.1309 78.1051 12.9634 79.0356 13.2425C79.4264 13.745 79.5009 14.6755 79.5195 15.3641C79.4823 15.6432 79.0356 15.7176 78.4773 15.7735C77.7515 15.8107 77.1746 15.7176 76.7094 15.5502ZM74.3831 2.35571C74.6995 1.38799 77.6026 0.959961 78.4215 0.959961C80.2825 0.959961 81.9388 1.90907 81.9946 3.8445C82.069 5.38913 81.3432 6.00325 80.1894 6.71043C79.1659 7.32456 78.9426 8.23645 78.9426 9.16694L79.0356 10.9163C79.0542 11.2885 78.2912 11.5118 77.3235 11.5862C76.728 11.6421 76.5233 11.456 76.5047 11.2326L76.393 9.18555C76.393 7.7712 76.3558 7.32456 77.7701 6.52433C78.8867 5.89159 79.3706 4.70056 79.3706 4.14226C79.3706 3.15593 79.0542 1.79741 78.1423 1.79741C77.6585 1.79741 77.4165 1.94629 77.0443 2.18822C76.8024 2.37432 76.5047 2.5232 75.9464 2.57903H75.0903C74.5878 2.57903 74.3459 2.50459 74.3831 2.35571Z" fill="black"/>
<path id="Vector_2" d="M62.6204 14.1169C61.8574 14.1914 61.3177 14.2286 60.9455 14.1914C59.8661 14.1542 60.2197 13.782 60.5733 13.3353C61.876 10.3577 63.8486 5.66803 64.7605 3.09985C63.2903 3.09985 61.7829 3.24873 60.2941 3.11846C60.015 3.09985 60.3314 2.20658 60.7222 2.16936C63.4206 1.90882 64.3697 2.02048 67.3101 2.00187C67.5334 2.00187 67.6823 2.09492 67.6823 2.2438C67.6823 2.54156 67.7009 2.98819 67.5706 3.09985C67.3287 3.28595 67.1054 3.41622 66.9007 3.73259L65.5794 6.89628C65.8585 6.85906 66.1377 6.80323 66.4168 6.82184C66.4913 6.89628 66.5657 7.02655 66.6029 7.19404C66.8635 8.19898 67.552 11.679 67.9987 13.3912C68.1289 13.8564 67.9801 13.9122 67.7009 13.9494C67.3845 14.0239 66.9193 14.0239 66.5657 14.0425C66.2121 14.0611 66.0446 14.0611 65.8771 13.3539C65.6724 12.442 65.3188 10.8788 64.8536 8.70145L62.6204 14.1169ZM70.1388 1.22025C70.5482 0.996931 71.4787 0.550293 72.1487 0.550293C72.2789 0.680563 72.3348 0.885272 72.3534 0.996931C72.3534 0.996931 72.4092 1.23886 72.4092 2.00187C72.2976 5.76108 72.3534 10.0228 72.465 14.973C72.4837 15.3824 72.4464 15.5127 71.4787 15.5871C71.274 15.6057 71.3298 15.6057 71.0321 15.5871C70.6227 15.5313 70.2505 15.4941 70.2319 15.1591C69.9899 10.9346 70.1202 6.15188 70.1388 1.22025Z" fill="black"/>
<path id="Vector_3" d="M44.3184 9.68789C44.3184 7.62219 46.1422 4.94236 48.8221 5.68676C52.3766 5.37039 52.4696 8.70157 52.4696 9.40874C52.4696 11.4 52.023 13.4099 48.3382 13.4099C45.4164 13.4099 44.3184 12.2561 44.3184 9.68789ZM43.909 4.2724C44.0021 4.10491 43.9649 3.93742 44.0579 3.82576C44.1323 3.73271 44.3184 3.67688 44.8023 3.67688L47.0169 3.62105L47.0727 0.755121C47.8171 0.699292 48.6732 0.345703 49.3245 0.345703C49.4734 0.438753 49.5478 0.587633 49.5665 0.680682C49.5665 0.680682 49.6037 1.01566 49.6037 1.76006L49.5292 3.56522L51.0925 3.50939C51.4461 3.50939 52.2277 3.69549 52.2835 3.82576V4.25379C52.2649 4.43989 51.688 4.58877 51.2041 4.58877C49.2129 4.58877 47.0727 4.73765 44.8581 4.73765C44.4673 4.73765 43.6857 4.73765 43.909 4.2724ZM46.8494 9.18542C46.8866 10.4695 46.9983 12.4794 48.7104 12.4794C49.92 12.4794 49.9945 10.8603 49.9945 9.65067C49.9945 7.86412 49.6595 6.50559 48.3568 6.5242C47.6496 6.56142 46.775 7.38026 46.8494 9.18542ZM54.3678 1.20176C54.7958 0.978441 55.7263 0.531802 56.3963 0.531802C56.5266 0.662071 56.5824 0.866781 56.601 0.978441C56.601 0.978441 56.6382 1.22037 56.6382 1.98338C56.601 3.56522 56.601 5.29595 56.601 7.13833C58.3503 7.11972 58.9645 7.11972 59.0389 7.13833C59.2622 7.17555 59.2064 7.2686 59.1878 7.47331C59.1692 7.6408 59.132 7.91995 59.0575 8.06883C58.4248 8.08744 57.4198 8.12466 56.601 8.12466C56.6196 10.302 56.6382 12.6655 56.6941 15.122C56.7127 15.55 56.6754 15.6617 55.7263 15.7361C55.5216 15.7547 55.5775 15.7547 55.2611 15.7361C54.8889 15.6803 54.4795 15.6431 54.4609 15.3081C54.2375 11.0836 54.3492 6.13339 54.3678 1.20176Z" fill="black"/>
<path id="Vector_4" d="M37.9125 6.98933C37.9125 7.24987 37.8566 7.52902 37.6519 7.52902C35.8281 7.69651 33.2972 7.75234 30.4685 7.60346C30.0777 7.56624 29.7613 7.54763 29.7427 7.15682L29.631 1.96465C30.0218 1.74133 31.3804 1.27608 31.9945 1.27608C32.1062 1.3133 32.162 1.79716 32.1806 1.85299C32.9808 1.85299 37.2239 1.44357 37.7264 1.57384C37.8752 1.6855 37.9683 1.85299 37.9869 1.94604C37.9869 1.94604 37.9125 3.65815 37.9125 6.98933ZM28.7564 10.06C28.8308 9.9297 29.0169 9.59472 29.631 9.59472L38.3405 9.53889C38.5452 9.53889 38.5824 9.59472 38.5824 9.70638C38.5824 10.0228 38.5824 10.5997 37.9683 10.5997C36.6842 10.6555 35.5304 10.6555 34.3766 10.6555C34.3952 12.1815 34.4138 14.1542 34.3766 15.1591C33.9299 15.2521 32.925 15.3824 32.3853 15.3452C31.9573 15.2894 31.7712 15.2521 31.7712 14.9172C31.8084 13.8192 31.7712 12.1257 31.7526 10.6555H29.2588C28.7564 10.6555 28.6447 10.395 28.7564 10.06ZM32.1806 2.83932L32.2736 6.5613L35.3443 6.57991L35.4001 2.52295C35.1768 2.52295 34.3952 2.69044 32.1806 2.83932ZM35.4187 12.5165C35.4373 12.442 35.6048 11.9954 35.977 11.7349H39.5501C39.4757 8.44091 39.5501 4.8678 39.5687 1.22025C39.9968 0.996931 40.9273 0.550293 41.5972 0.550293C41.7461 0.680563 41.7833 0.885272 41.8019 0.996931C41.8019 0.996931 41.8578 1.23886 41.8578 2.00187C41.7647 5.76108 41.8019 10.0228 41.895 14.973C41.9136 15.3824 41.8764 15.5127 40.9273 15.5871C40.7039 15.6057 40.7784 15.6057 40.462 15.5871C40.0898 15.5313 39.6804 15.4941 39.6618 15.1591C39.6246 14.3961 39.5873 13.6145 39.5687 12.8329L36.1259 12.8515C35.6234 12.8515 35.3443 12.9259 35.4187 12.5165Z" fill="black"/>
<path id="Vector_5" d="M25.2308 4.36551C25.3797 4.36551 25.4355 4.47717 25.4169 4.58882C25.3611 4.94241 25.3052 5.12851 25.1191 5.42627C23.072 5.42627 19.2198 5.53793 16.9866 5.50071C16.6144 5.46349 16.298 5.42627 16.2794 5.07268C16.205 4.03053 16.1119 1.62984 16.0933 0.959887C16.5027 0.736567 17.8426 0.327148 18.4568 0.327148C18.6429 0.401588 18.7173 0.587689 18.7359 0.680738C18.7359 0.680738 18.7731 0.997106 18.7731 1.72289L18.829 4.36551H25.2308ZM14.437 7.39892C14.5115 7.26866 14.6976 6.91507 15.3117 6.91507L26.7568 6.82202C26.9429 6.82202 26.9987 6.85924 26.9987 6.9709C26.9987 7.30588 26.9987 7.84556 26.366 7.84556C23.2395 7.95722 18.066 7.97583 14.9395 7.97583C14.437 7.97583 14.3254 7.71529 14.437 7.39892ZM16.1678 12.498C16.3166 12.1258 16.5586 11.9397 17.6007 11.8839L22.3276 11.8467L22.2904 10.209C20.3364 10.2276 17.9543 10.2276 17.4518 10.2649C17.2843 10.2276 16.7819 10.0974 16.6144 9.98571C16.3166 9.83683 16.298 9.781 16.298 9.63212C16.3166 9.4088 16.8749 9.39019 17.4332 9.39019C18.4196 9.33436 22.1043 9.31575 23.7978 9.29714C24.1142 9.2227 24.4306 9.18548 24.6539 9.18548C24.8028 9.27853 24.933 9.42741 24.9889 9.52046C24.9889 9.52046 25.0819 10.3021 24.9889 12.3492C24.9889 12.6469 24.9144 12.8889 24.7097 12.8889L23.1465 12.9075H22.6626C21.6205 12.9075 20.6155 12.9447 19.5734 12.9447V13.4472L19.5361 14.7498L25.7519 14.694C25.9008 14.694 25.938 14.8057 25.9194 14.9173C25.8821 15.2523 25.8077 15.457 25.603 15.7734C23.5745 15.7734 19.9456 15.9223 17.7124 15.8851C17.3402 15.8478 17.0052 15.8106 16.9866 15.457C16.9494 14.5451 16.8935 13.6519 16.9308 12.9633C16.54 12.9633 15.9817 12.8889 16.1678 12.498Z" fill="black"/>
<path id="Vector_6" d="M2.03991 5.66822C2.03991 2.80229 4.90584 1.48099 7.49263 1.92762C7.67873 1.81597 7.75316 1.76014 7.86482 1.76014C7.95787 1.76014 8.18119 1.6857 8.36729 1.76014C10.8238 2.56036 11.0657 4.4958 11.0285 5.55656C10.9541 6.78482 10.5447 8.34805 7.80899 9.09245L7.86482 13.0936L12.3684 13.075C12.5545 13.075 12.6104 13.1122 12.6104 13.2239C12.6104 13.5402 12.6104 14.1171 11.9776 14.1171C8.86976 14.2102 4.2545 14.173 1.10942 14.173C0.606949 14.173 0.49529 13.931 0.606949 13.5961C0.681389 13.4472 0.867489 13.1122 1.48162 13.1122L5.29665 13.0936L5.25943 9.31577V9.25994C2.9518 8.83191 2.03991 7.17563 2.03991 5.66822ZM4.66392 5.4449C4.70114 6.95231 5.48275 8.16195 6.63657 8.29222C7.58568 8.0689 8.40451 6.91509 8.40451 5.48212C8.40451 3.62113 8.16258 3.02561 7.19487 2.91395C6.15271 2.83951 4.58948 3.45364 4.66392 5.4449Z" fill="black"/>
</g>
</svg>
